<?xml version="1.0" encoding="UTF-8"?>
<svg id="Camada_1" data-name="Camada 1" xmlns="http://www.w3.org/2000/svg" viewBox="0 0 841.9 236.1">
  <defs>
    <style>
      .cls-1 {
        fill: #0f3d3e;
      }

      .cls-2 {
        fill: #fde68a;
      }
    </style>
  </defs>
  <g>
    <path class="cls-1" d="M29.3,90.6c7.3-13,17.3-23.1,29.9-30.4,12.6-7.3,26.7-11,42.1-11s34,4.4,47.5,13.1c13.5,8.8,23.4,21.2,29.6,37.2h-26c-4.6-10-11.3-17.7-19.9-23.1-8.7-5.4-19.1-8.1-31.1-8.1s-22,2.7-31.3,8.1c-9.2,5.4-16.5,13.1-21.7,23-5.3,9.9-7.9,21.6-7.9,35s2.6,24.8,7.9,34.7c5.3,9.9,12.5,17.6,21.7,23,9.2,5.4,19.6,8.1,31.3,8.1s22.5-2.7,31.1-8c8.7-5.3,15.3-13,19.9-23h26c-6.2,15.9-16.1,28.2-29.6,36.9-13.5,8.7-29.4,13-47.5,13s-29.5-3.6-42.1-10.9c-12.6-7.2-22.6-17.3-29.9-30.2-7.3-12.9-11-27.4-11-43.7s3.7-30.8,11-43.8Z"/>
    <path class="cls-1" d="M234.4,211.5c-9.9-5.6-17.7-13.5-23.4-23.7-5.6-10.3-8.5-22.2-8.5-35.7s2.9-25.2,8.7-35.4c5.8-10.3,13.7-18.1,23.7-23.6,10-5.5,21.2-8.2,33.6-8.2s23.6,2.7,33.6,8.2c10,5.5,17.9,13.3,23.7,23.5,5.8,10.2,8.7,22,8.7,35.6s-3,25.4-8.9,35.7c-6,10.3-14,18.2-24.2,23.7-10.2,5.6-21.5,8.4-33.9,8.4s-23.3-2.8-33.3-8.4ZM289.6,195.3c6.8-3.7,12.4-9.1,16.6-16.5,4.2-7.3,6.3-16.2,6.3-26.7s-2.1-19.4-6.2-26.7c-4.1-7.3-9.5-12.8-16.2-16.3-6.7-3.6-13.9-5.4-21.7-5.4s-15.2,1.8-21.8,5.4c-6.6,3.6-11.9,9-15.9,16.3-4,7.3-6,16.2-6,26.7s1.9,19.6,5.8,27c3.9,7.3,9.1,12.8,15.6,16.3,6.5,3.6,13.7,5.4,21.5,5.4s15.1-1.8,22-5.5Z"/>
    <path class="cls-1" d="M465.8,99c9.9,9.6,14.8,23.5,14.8,41.6v77.1h-21.5v-74c0-13-3.3-23-9.8-29.9-6.5-6.9-15.4-10.4-26.7-10.4s-20.6,3.6-27.3,10.7c-6.8,7.2-10.1,17.6-10.1,31.3v72.3h-21.7V86.9h21.7v18.6c4.3-6.7,10.1-11.8,17.5-15.5,7.4-3.7,15.5-5.5,24.5-5.5,15.9,0,28.8,4.8,38.7,14.4Z"/>
    <path class="cls-1" d="M542.6,104.8v77.1c0,6.4,1.4,10.9,4.1,13.5,2.7,2.6,7.4,3.9,14.1,3.9h16v18.4h-19.6c-12.1,0-21.2-2.8-27.2-8.4-6-5.6-9.1-14.7-9.1-27.4v-77.1h-16.9v-17.9h16.9v-32.9h21.7v32.9h34.1v17.9h-34.1Z"/>
    <path class="cls-1" d="M603,116.7c5.4-10.1,12.8-17.9,22.3-23.5,9.5-5.6,20-8.4,31.6-8.4s21.4,2.5,29.8,7.4c8.4,4.9,14.7,11.1,18.9,18.6v-23.9h22v130.8h-22v-24.3c-4.3,7.6-10.7,14-19.2,19-8.5,5-18.4,7.5-29.7,7.5s-22.1-2.9-31.5-8.6c-9.4-5.7-16.8-13.8-22.2-24.1-5.4-10.3-8.1-22.1-8.1-35.3s2.7-25.1,8.1-35.2ZM699.6,126.3c-4-7.3-9.3-12.9-16.1-16.8-6.8-3.9-14.2-5.8-22.3-5.8s-15.5,1.9-22.2,5.7c-6.7,3.8-12,9.4-16,16.7-4,7.3-6,15.9-6,25.8s2,18.7,6,26.1c4,7.4,9.3,13,16,16.9,6.7,3.9,14.1,5.8,22.2,5.8s15.5-1.9,22.3-5.8c6.8-3.9,12.1-9.5,16.1-16.9,4-7.4,6-16,6-25.9s-2-18.5-6-25.8Z"/>
    <path class="cls-1" d="M786,86.9v130.8h-21.7V86.9h21.7Z"/>
  </g>
  <path class="cls-2" d="M821.8,51.4l-57.5,24.1v-28.2l57.5-27.7v31.7Z"/>
</svg>